<svg xmlns="http://www.w3.org/2000/svg" viewBox="0 0 1280 640"><path fill="#00008b" d="M0 0h1280v640H0z"/><path fill="#fff" d="M0 0v27l307 193h38zm640 0v27L333 220h-38zM38 0l269 169v51L0 0zm564 0L333 220v-51L640 0zM0 267v106h640V267zm267 373v-27L574 420h38zm-229 0v-27l307-193h38zM0 640l307-220v51L38 640zm602 0L333 420v51l269 169z"/><path fill="#c8102e" d="M267 0v267H0v106h267v267h106V373h267V267H373V0zm-38 640L0 480v53l178 107zm178-220L640 533v-53L458 373zM0 160v53l178-107H127zM640 53L462 160h51L640 53z"/><g fill="#fff"><path d="M299 496l6 17h18l-15 11 6 17-15-11-15 11 6-17-15-11h18z"/><path d="M299 388l6 17h18l-15 11 6 17-15-11-15 11 6-17-15-11h18z"/><path d="M395 436l6 17h18l-15 11 6 17-15-11-15 11 6-17-15-11h18z"/><path d="M203 436l6 17h18l-15 11 6 17-15-11-15 11 6-17-15-11h18z"/><path d="M251 532l6 17h18l-15 11 6 17-15-11-15 11 6-17-15-11h18z"/><path d="M1118 160l12 37h39l-32 23 12 37-31-23-31 23 12-37-32-23h39z"/></g></svg>