<svg xmlns="http://www.w3.org/2000/svg" viewBox="0 0 1200 600"><path fill="#00247d" d="M0 0h1200v600H0z"/><path fill="#fff" d="M0 0v27l154 97h19zm300 0v27L146 124h-19zM19 0l135 85v26L0 0zm262 0L146 124v-26L300 0zM0 134v53h300v-53zm117 186v-13l154-97h19zm164 0v-13L146 210h-19zM136 320l135-85v26L117 320zm145 0L146 210v26l154 84z"/><path fill="#cc142b" d="M117 0v134H0v53h117v133h66V187h117v-53H183V0zm-6 320L0 240v27l89 53zm89 0l111-80v27l-89 53zM0 160v-27l89 54H78zm211-47l89-53v27l-111 79z"/><g fill="#cc142b" stroke="#fff" stroke-width="5"><path d="M870 160l-15 46h-48l39 28-15 46 39-28 39 28-15-46 39-28h-48z"/><path d="M1020 280l-12 37h-39l32 23-12 37 31-23 31 23-12-37 32-23h-39z"/><path d="M1020 440l-12 37h-39l32 23-12 37 31-23 31 23-12-37 32-23h-39z"/><path d="M900 360l-12 37h-39l32 23-12 37 31-23 31 23-12-37 32-23h-39z"/></g></svg>