<svg xmlns="http://www.w3.org/2000/svg" viewBox="0 0 4320 2880"><path fill="#ed2939" d="M0 0h4320v1440H0z"/><path fill="#fff" d="M0 1440h4320v1440H0z"/><path fill="#fff" d="M720 360a480 480 0 1 0 0 720 360 360 0 1 1 0-720z"/><path fill="#fff" d="M1080 360l55 169h178l-144 105 55 169-144-105-144 105 55-169-144-105h178zm360 0l55 169h178l-144 105 55 169-144-105-144 105 55-169-144-105h178zm-540 360l55 169h178l-144 105 55 169-144-105-144 105 55-169-144-105h178zm720 0l55 169h178l-144 105 55 169-144-105-144 105 55-169-144-105h178zm-360 180l55 169h178l-144 105 55 169-144-105-144 105 55-169-144-105h178z"/></svg>